<?xml version="1.0" encoding="UTF-8" standalone="no"?><!-- Generator: Gravit.io --><svg xmlns="http://www.w3.org/2000/svg" xmlns:xlink="http://www.w3.org/1999/xlink" style="isolation:isolate" viewBox="0 0 500 500" width="500pt" height="500pt"><g><path d=" M 192.931 250 L 164.396 200.577 L 139.286 157.084 C 137.396 153.811 137.396 148.496 139.286 145.222 L 164.396 101.73 L 189.507 58.237 C 191.396 54.964 195.999 52.306 199.779 52.306 L 250 52.306 L 300.221 52.306 C 304.001 52.306 308.604 54.964 310.493 58.237 L 335.604 101.73 L 360.714 145.222 C 362.604 148.496 362.604 153.811 360.714 157.084 L 335.604 200.577 L 307.069 250 L 256.278 162.026 C 252.813 156.025 247.187 156.025 243.722 162.026 L 192.931 250 Z  M 250 348.847 L 221.465 398.27 L 196.355 441.763 C 194.465 445.036 189.862 447.694 186.082 447.694 L 135.861 447.694 L 85.64 447.694 C 81.861 447.694 77.258 445.036 75.368 441.763 L 50.257 398.27 L 25.147 354.778 C 23.257 351.504 23.257 346.189 25.147 342.916 L 50.257 299.423 L 75.368 255.931 C 77.258 252.658 81.861 250 85.64 250 L 135.861 250 L 192.931 250 L 142.139 337.974 C 138.674 343.975 141.487 348.847 148.417 348.847 L 250 348.847 Z  M 307.069 250 L 364.139 250 L 414.36 250 C 418.139 250 422.742 252.658 424.632 255.931 L 449.743 299.423 L 474.853 342.916 C 476.743 346.189 476.743 351.504 474.853 354.778 L 449.743 398.27 L 424.632 441.763 C 422.742 445.036 418.139 447.694 414.36 447.694 L 364.139 447.694 L 313.918 447.694 C 310.138 447.694 305.535 445.036 303.645 441.763 L 278.535 398.27 L 250 348.847 L 351.583 348.847 C 358.513 348.847 361.326 343.975 357.861 337.974 L 307.069 250 Z " fill-rule="evenodd" fill="rgb(0,0,0)"/><polygon points="192.931,250,307.069,250,250,348.847" fill="rgb(0,0,0)"/></g></svg>